<?xml version="1.0" standalone="no"?>
<!DOCTYPE svg PUBLIC "-//W3C//DTD SVG 20010904//EN"
 "http://www.w3.org/TR/2001/REC-SVG-20010904/DTD/svg10.dtd">
<svg version="1.0" xmlns="http://www.w3.org/2000/svg"
 width="635.000000pt" height="635.000000pt" viewBox="0 0 635.000000 635.000000"
 preserveAspectRatio="xMidYMid meet">
<metadata>
Created by potrace 1.11, written by Peter Selinger 2001-2013
</metadata>
<g transform="translate(0.000000,635.000000) scale(0.100000,-0.100000)"
fill="#000000" stroke="none">
<path d="M635 5979 c-111 -19 -164 -48 -258 -143 -49 -50 -85 -115 -107 -196
-10 -35 -13 -503 -14 -2080 0 -1119 3 -2055 7 -2080 12 -66 17 -80 49 -148 28
-61 163 -192 190 -185 4 2 8 -1 8 -6 0 -4 28 -16 63 -26 55 -16 114 -18 532
-20 l470 -2 70 -25 c64 -22 91 -38 131 -76 8 -7 14 -11 14 -8 0 3 124 -119
275 -270 151 -152 275 -273 275 -271 0 3 16 -10 36 -28 20 -19 57 -44 82 -56
26 -13 49 -26 52 -29 6 -8 51 -18 130 -28 68 -9 1323 -7 1367 2 58 11 163 55
163 68 0 4 4 8 10 8 16 0 44 26 213 192 88 87 164 158 169 158 5 0 7 3 5 7 -2
5 16 27 40 49 24 23 43 39 43 36 0 -3 10 7 22 24 23 30 78 86 78 80 0 -2 15
10 33 28 69 64 146 113 197 124 68 14 204 17 748 17 l622 0 0 2445 0 2445
-657 -1 c-649 -1 -760 -6 -778 -35 -4 -5 -12 -9 -20 -9 -16 0 -71 -35 -124
-77 -19 -16 -154 -147 -299 -292 -290 -287 -337 -327 -427 -361 -60 -23 -60
-23 -705 -24 -355 -1 -672 2 -704 7 -63 9 -151 44 -183 71 -10 9 -33 30 -51
46 -18 17 -37 30 -42 30 -5 0 -12 9 -15 21 -4 11 -9 18 -11 16 -7 -7 -92 76
-87 85 2 4 -5 9 -15 12 -10 4 -25 18 -32 31 -7 14 -15 23 -18 20 -6 -5 -142
135 -142 147 0 4 -6 7 -12 5 -7 -1 -12 4 -11 11 2 6 -3 12 -11 12 -8 0 -17 9
-21 20 -3 11 -9 19 -13 17 -4 -1 -38 29 -75 67 -37 38 -67 66 -67 63 0 -3 -12
5 -26 18 -32 30 -112 69 -174 86 -49 13 -920 20 -995 8z"/>
</g>
</svg>
